<svg xmlns="http://www.w3.org/2000/svg" width="330" height="254.266" viewBox="0 0 330 254.266"><defs><style>.a,.b{fill:#22262a;font-family:Helvetica;}.a{font-size:24px;}.b{font-size:14px;}.c{fill:#ff6875;}</style></defs><g transform="translate(-1195 -2962)"><text class="a" transform="translate(1360 3074)"><tspan x="-84.275" y="0">SUPPORT 24/7</tspan></text><text class="b" transform="translate(1195 3114.266)"><tspan x="7.428" y="11">Lorem ipsum dolor sit amet, consectetur adipiscing </tspan><tspan x="17.159" y="35">elit, sed do eiusmod tempor minim veniam, quis </tspan><tspan x="7.418" y="59" xml:space="preserve">nostrud  reprehenderit in voluptate velit esse cillum </tspan><tspan x="74.328" y="83">dolore eu fugiat nulla pariatur</tspan></text><g transform="translate(1337.001 2962)"><path class="c" d="M0,365.4V378.25H46.826V365.4a5.409,5.409,0,0,0-5.4-5.4H5.4A5.409,5.409,0,0,0,0,365.4Zm3.6,0a1.8,1.8,0,0,1,1.8-1.8H7.2v11.046H3.6Zm7.2-1.8h4.657l7.95,7.95,7.95-7.95H36.02v11.046H10.806Zm32.418,1.8v9.245h-3.6V363.6h1.8A1.8,1.8,0,0,1,43.224,365.4Zm-16.955-1.8-2.856,2.856L20.557,363.6Zm0,0" transform="translate(0 -316.776)"/><path class="c" d="M36.883,36.02h2.738v-3.6h1.8a5.409,5.409,0,0,0,5.4-5.4v-3.6A23.413,23.413,0,0,0,0,23.413v3.6a5.409,5.409,0,0,0,5.4,5.4H8.131a16.2,16.2,0,0,0,28.752,3.6Zm4.539-7.2h-1.9a16.2,16.2,0,0,0,.1-1.8v-3.6a16.2,16.2,0,0,0-.1-1.8h1.9a1.8,1.8,0,0,1,1.8,1.8v3.6A1.8,1.8,0,0,1,41.422,28.816ZM23.413,3.6A19.846,19.846,0,0,1,42.5,18.119a5.405,5.405,0,0,0-1.082-.109H38.694a16.209,16.209,0,0,0-30.563,0H5.4a5.405,5.405,0,0,0-1.082.109A19.846,19.846,0,0,1,23.413,3.6ZM33.755,16.213a12.658,12.658,0,0,1-10.343,5.4H10.935a12.6,12.6,0,0,1,22.821-5.4ZM5.4,28.816a1.8,1.8,0,0,1-1.8-1.8v-3.6a1.8,1.8,0,0,1,1.8-1.8H7.3a16.2,16.2,0,0,0-.1,1.8v3.6a16.2,16.2,0,0,0,.1,1.8Zm5.4-1.8v-1.8H23.413a16.27,16.27,0,0,0,12.08-5.407,12.549,12.549,0,0,1,.527,3.606v3.6a12.533,12.533,0,0,1-1.218,5.4H28.815l-1.582-1.582a5.4,5.4,0,0,1-7.641,0l-2.547,2.547a9.005,9.005,0,0,0,11.77.837v1.8h3.41a12.6,12.6,0,0,1-21.42-9Zm0,0"/></g></g></svg>